ffmpeg started on 2025-06-27 at 10:23:38
Report written to "D:\Convert\FFMetrics\reports\psnr_report-6.txt"
Log level: 32
Command line:
ffmpeg -hide_banner -nostdin -i "G:\\\xc0\xed\xe8\xec\xe5\\[\xd2\xee\xef-4]\\\xd2\xee\xea\xe8\xe9\xf1\xea\xe8\xe9 \xc3\xf3\xeb\xfc\\\xd2\xc2-4\\Tokyo_Ghoul_Re_[16]_[AniLibria_TV]_[HDTVRip_720p]_HEVC.mkv" -i "G:\\\xc0\xed\xe8\xec\xe5\\[\xd2\xee\xef-4]\\\xd2\xee\xea\xe8\xe9\xf1\xea\xe8\xe9 \xc3\xf3\xeb\xfc\\\xd2\xc2-4\\Tokyo_Ghoul_Re_[16]_[AniLibria_TV]_[HDTVRip_720p].mkv" -lavfi "[0:v]settb=AVTB,setpts=PTS-STARTPTS,format=pix_fmts=yuv420p10,fps=24000/1001,scale=1280:720:flags=bicubic[main];[1:v]settb=AVTB,setpts=PTS-STARTPTS,format=pix_fmts=yuv420p,fps=24000/1001,scale=1280:720:flags=bicubic[ref];[main][ref]psnr=eof_action=endall:stats_file='D\\:/Convert/FFMetrics/logs/psnr_logfile-6.txt'" -f null -
Input #0, matroska,webm, from 'G:\Аниме\[Топ-4]\Токийский Гуль\ТВ-4\Tokyo_Ghoul_Re_[16]_[AniLibria_TV]_[HDTVRip_720p]_HEVC.mkv':
  Metadata:
    ENCODER         : Lavf61.7.100
  Duration: 00:24:30.04, start: -0.021000, bitrate: 652 kb/s
  Stream #0:0(jpn): Video: hevc (Main 10), yuv420p10le(tv, bt709, progressive), 1280x720 [SAR 1:1 DAR 16:9], 23.98 fps, 23.98 tbr, 1k tbn (default)
      Metadata:
        ENCODER         : Lavc61.19.100 libx265
        BPS             : 454712
        DURATION        : 00:24:29.968708333
        NUMBER_OF_FRAMES: 35244
        NUMBER_OF_BYTES : 83551623
        _STATISTICS_WRITING_APP: mkvpropedit v66.0.0 ('Josie') 64-bit
        _STATISTICS_WRITING_DATE_UTC: 2025-06-26 15:37:04
        _STATISTICS_TAGS: BPS DURATION NUMBER_OF_FRAMES NUMBER_OF_BYTES
  Stream #0:1(rus): Audio: aac (LC), 48000 Hz, stereo, fltp (default) (forced)
      Metadata:
        title           : AniLibria.TV
        ENCODER         : Lavc61.19.100 aac
        BPS             : 193785
        DURATION        : 00:24:30.016000000
        NUMBER_OF_FRAMES: 68908
        NUMBER_OF_BYTES : 35608389
        _STATISTICS_WRITING_APP: mkvpropedit v66.0.0 ('Josie') 64-bit
        _STATISTICS_WRITING_DATE_UTC: 2025-06-26 15:37:04
        _STATISTICS_TAGS: BPS DURATION NUMBER_OF_FRAMES NUMBER_OF_BYTES
  Stream #0:2(rus): Subtitle: ass (ssa) (default) (forced)
      Metadata:
        title           : Надписи
        BPS             : 26
        DURATION        : 00:23:12.510000000
        NUMBER_OF_FRAMES: 29
        NUMBER_OF_BYTES : 4537
        _STATISTICS_WRITING_APP: mkvpropedit v66.0.0 ('Josie') 64-bit
        _STATISTICS_WRITING_DATE_UTC: 2025-06-26 15:37:04
        _STATISTICS_TAGS: BPS DURATION NUMBER_OF_FRAMES NUMBER_OF_BYTES
  Stream #0:3(rus): Subtitle: ass (ssa)
      Metadata:
        title           : Полные
        BPS             : 103
        DURATION        : 00:24:03.060000000
        NUMBER_OF_FRAMES: 275
        NUMBER_OF_BYTES : 18581
        _STATISTICS_WRITING_APP: mkvpropedit v66.0.0 ('Josie') 64-bit
        _STATISTICS_WRITING_DATE_UTC: 2025-06-26 15:37:04
        _STATISTICS_TAGS: BPS DURATION NUMBER_OF_FRAMES NUMBER_OF_BYTES
[matroska,webm @ 0000013f100f7780] Could not find codec parameters for stream 15 (Attachment: none): unknown codec
Consider increasing the value for the 'analyzeduration' (0) and 'probesize' (5000000) options
Input #1, matroska,webm, from 'G:\Аниме\[Топ-4]\Токийский Гуль\ТВ-4\Tokyo_Ghoul_Re_[16]_[AniLibria_TV]_[HDTVRip_720p].mkv':
  Metadata:
    encoder         : libebml v1.4.2 + libmatroska v1.6.4
    creation_time   : 2024-12-27T09:48:50.000000Z
  Duration: 00:24:30.02, start: 0.000000, bitrate: 1951 kb/s
  Stream #1:0(jpn): Video: h264 (Main), yuv420p(tv, bt709, progressive), 1280x720, SAR 1:1 DAR 16:9, 23.98 fps, 23.98 tbr, 1k tbn (default)
      Metadata:
        BPS             : 1746257
        DURATION        : 00:24:29.969000000
        NUMBER_OF_FRAMES: 35244
        NUMBER_OF_BYTES : 320868073
        _STATISTICS_WRITING_APP: mkvmerge v66.0.0 ('Josie') 64-bit
        _STATISTICS_WRITING_DATE_UTC: 2024-12-27 09:48:50
        _STATISTICS_TAGS: BPS DURATION NUMBER_OF_FRAMES NUMBER_OF_BYTES
  Stream #1:1(rus): Audio: aac (LC), 48000 Hz, stereo, fltp (default) (forced)
      Metadata:
        title           : AniLibria.TV
        BPS             : 192091
        DURATION        : 00:24:30.016000000
        NUMBER_OF_FRAMES: 68907
        NUMBER_OF_BYTES : 35297236
        _STATISTICS_WRITING_APP: mkvmerge v66.0.0 ('Josie') 64-bit
        _STATISTICS_WRITING_DATE_UTC: 2024-12-27 09:48:50
        _STATISTICS_TAGS: BPS DURATION NUMBER_OF_FRAMES NUMBER_OF_BYTES
  Stream #1:2(rus): Subtitle: ass (ssa) (default) (forced)
      Metadata:
        title           : Надписи
        BPS             : 26
        DURATION        : 00:23:12.510000000
        NUMBER_OF_FRAMES: 29
        NUMBER_OF_BYTES : 4537
        _STATISTICS_WRITING_APP: mkvmerge v66.0.0 ('Josie') 64-bit
        _STATISTICS_WRITING_DATE_UTC: 2024-12-27 09:48:50
        _STATISTICS_TAGS: BPS DURATION NUMBER_OF_FRAMES NUMBER_OF_BYTES
  Stream #1:3(rus): Subtitle: ass (ssa)
      Metadata:
        title           : Полные
        BPS             : 103
        DURATION        : 00:24:03.060000000
        NUMBER_OF_FRAMES: 275
        NUMBER_OF_BYTES : 18581
        _STATISTICS_WRITING_APP: mkvmerge v66.0.0 ('Josie') 64-bit
        _STATISTICS_WRITING_DATE_UTC: 2024-12-27 09:48:50
        _STATISTICS_TAGS: BPS DURATION NUMBER_OF_FRAMES NUMBER_OF_BYTES
  Stream #1:4: Attachment: ttf
      Metadata:
        filename        : 10322__2.ttf
        mimetype        : application/x-truetype-font
  Stream #1:5: Attachment: ttf
      Metadata:
        filename        : 10352__0.ttf
        mimetype        : application/x-truetype-font
  Stream #1:6: Attachment: ttf
      Metadata:
        filename        : Aero Matics Display Bold Italic.ttf
        mimetype        : application/x-truetype-font
  Stream #1:7: Attachment: ttf
      Metadata:
        filename        : Aero Matics Display Bold.ttf
        mimetype        : application/x-truetype-font
  Stream #1:8: Attachment: ttf
      Metadata:
        filename        : Aero Matics Display Italic.ttf
        mimetype        : application/x-truetype-font
  Stream #1:9: Attachment: ttf
      Metadata:
        filename        : Aero Matics Display Light Italic.ttf
        mimetype        : application/x-truetype-font
  Stream #1:10: Attachment: ttf
      Metadata:
        filename        : Aero Matics Display Light.ttf
        mimetype        : application/x-truetype-font
  Stream #1:11: Attachment: ttf
      Metadata:
        filename        : Aero_Matics_Display_Regular.ttf
        mimetype        : application/x-truetype-font
  Stream #1:12: Attachment: ttf
      Metadata:
        filename        : BenchNine-Regular.ttf
        mimetype        : application/x-truetype-font
  Stream #1:13: Attachment: ttf
      Metadata:
        filename        : OpenSanA.ttf
        mimetype        : application/x-truetype-font
  Stream #1:14: Attachment: ttf
      Metadata:
        filename        : REDOCTOB.otf
        mimetype        : application/x-truetype-font
  Stream #1:15: Attachment: none
      Metadata:
        filename        : simsun_0.ttc
        mimetype        : application/octet-stream
  Stream #1:16: Attachment: ttf
      Metadata:
        filename        : Snowstorm.ttf
        mimetype        : application/x-truetype-font
  Stream #1:17: Attachment: ttf
      Metadata:
        filename        : TEMPSITC.TTF
        mimetype        : application/x-truetype-font
  Stream #1:18: Attachment: ttf
      Metadata:
        filename        : TrajanPro3-Bold.otf
        mimetype        : application/x-truetype-font
  Stream #1:19: Attachment: ttf
      Metadata:
        filename        : TrajanPro3-Regular.otf
        mimetype        : application/x-truetype-font
  Stream #1:20: Attachment: ttf
      Metadata:
        filename        : v_CCTimSale_v1.11.ttf
        mimetype        : application/x-truetype-font
  Stream #1:21: Attachment: ttf
      Metadata:
        filename        : v_HolyMackerelli_v1.9.ttf
        mimetype        : application/x-truetype-font
  Stream #1:22: Attachment: ttf
      Metadata:
        filename        : v_StraightJacketBB_v1.1.ttf
        mimetype        : application/x-truetype-font
  Stream #1:23: Attachment: ttf
      Metadata:
        filename        : XENI.TTF
        mimetype        : application/x-truetype-font
Stream mapping:
  Stream #0:0 (hevc) -> settb:default
  Stream #1:0 (h264) -> settb:default
  psnr:default -> Stream #0:0 (wrapped_avframe)
  Stream #0:1 -> #0:1 (aac (native) -> pcm_s16le (native))
Output #0, null, to 'pipe:':
  Metadata:
    encoder         : Lavf61.7.100
  Stream #0:0: Video: wrapped_avframe, yuv420p10le(tv, bt709, progressive), 1280x720 [SAR 1:1 DAR 16:9], q=2-31, 200 kb/s, 23.98 fps, 23.98 tbn
      Metadata:
        encoder         : Lavc61.19.100 wrapped_avframe
  Stream #0:1(rus): Audio: pcm_s16le, 48000 Hz, stereo, s16, 1536 kb/s (default) (forced)
      Metadata:
        title           : AniLibria.TV
        _STATISTICS_TAGS: BPS DURATION NUMBER_OF_FRAMES NUMBER_OF_BYTES
        BPS             : 193785
        DURATION        : 00:24:30.016000000
        NUMBER_OF_FRAMES: 68908
        NUMBER_OF_BYTES : 35608389
        _STATISTICS_WRITING_APP: mkvpropedit v66.0.0 ('Josie') 64-bit
        _STATISTICS_WRITING_DATE_UTC: 2025-06-26 15:37:04
        encoder         : Lavc61.19.100 pcm_s16le
frame=  389 fps=0.0 q=-0.0 size=N/A time=00:00:16.22 bitrate=N/A speed=31.4x    frame=  836 fps=805 q=-0.0 size=N/A time=00:00:34.86 bitrate=N/A speed=33.6x    frame= 1303 fps=842 q=-0.0 size=N/A time=00:00:54.34 bitrate=N/A speed=35.1x    frame= 1690 fps=817 q=-0.0 size=N/A time=00:01:10.48 bitrate=N/A speed=34.1x    frame= 1748 fps=679 q=-0.0 size=N/A time=00:01:12.90 bitrate=N/A speed=28.3x    frame= 2031 fps=656 q=-0.0 size=N/A time=00:01:24.70 bitrate=N/A speed=27.3x    frame= 2316 fps=642 q=-0.0 size=N/A time=00:01:36.59 bitrate=N/A speed=26.8x    frame= 2724 fps=660 q=-0.0 size=N/A time=00:01:53.61 bitrate=N/A speed=27.5x    frame= 2978 fps=642 q=-0.0 size=N/A time=00:02:04.20 bitrate=N/A speed=26.8x    frame= 3414 fps=662 q=-0.0 size=N/A time=00:02:22.39 bitrate=N/A speed=27.6x    frame= 3886 fps=685 q=-0.0 size=N/A time=00:02:42.07 bitrate=N/A speed=28.6x    frame= 4236 fps=684 q=-0.0 size=N/A time=00:02:56.67 bitrate=N/A speed=28.5x    frame= 4688 fps=698 q=-0.0 size=N/A time=00:03:15.52 bitrate=N/A speed=29.1x    frame= 5055 fps=700 q=-0.0 size=N/A time=00:03:30.83 bitrate=N/A speed=29.2x    frame= 5114 fps=660 q=-0.0 size=N/A time=00:03:33.29 bitrate=N/A speed=27.5x    frame= 5389 fps=653 q=-0.0 size=N/A time=00:03:44.76 bitrate=N/A speed=27.2x    frame= 5672 fps=647 q=-0.0 size=N/A time=00:03:56.56 bitrate=N/A speed=  27x    frame= 5867 fps=631 q=-0.0 size=N/A time=00:04:04.70 bitrate=N/A speed=26.3x    frame= 6217 fps=634 q=-0.0 size=N/A time=00:04:19.30 bitrate=N/A speed=26.5x    frame= 6578 fps=637 q=-0.0 size=N/A time=00:04:34.35 bitrate=N/A speed=26.6x    frame= 7055 fps=652 q=-0.0 size=N/A time=00:04:54.25 bitrate=N/A speed=27.2x    frame= 7522 fps=663 q=-0.0 size=N/A time=00:05:13.73 bitrate=N/A speed=27.6x    frame= 7985 fps=673 q=-0.0 size=N/A time=00:05:33.04 bitrate=N/A speed=28.1x    frame= 8524 fps=688 q=-0.0 size=N/A time=00:05:55.52 bitrate=N/A speed=28.7x    frame= 8858 fps=687 q=-0.0 size=N/A time=00:06:09.45 bitrate=N/A speed=28.7x    frame= 9182 fps=684 q=-0.0 size=N/A time=00:06:22.96 bitrate=N/A speed=28.5x    frame= 9709 fps=697 q=-0.0 size=N/A time=00:06:44.94 bitrate=N/A speed=29.1x    frame= 9929 fps=688 q=-0.0 size=N/A time=00:06:54.12 bitrate=N/A speed=28.7x    frame=10394 fps=695 q=-0.0 size=N/A time=00:07:13.51 bitrate=N/A speed=  29x    frame=10787 fps=697 q=-0.0 size=N/A time=00:07:29.90 bitrate=N/A speed=29.1x    frame=10925 fps=683 q=-0.0 size=N/A time=00:07:35.66 bitrate=N/A speed=28.5x    frame=11340 fps=687 q=-0.0 size=N/A time=00:07:52.97 bitrate=N/A speed=28.7x    frame=11689 fps=687 q=-0.0 size=N/A time=00:08:07.52 bitrate=N/A speed=28.6x    frame=12090 fps=690 q=-0.0 size=N/A time=00:08:24.25 bitrate=N/A speed=28.8x    frame=12494 fps=692 q=-0.0 size=N/A time=00:08:41.10 bitrate=N/A speed=28.9x    frame=12890 fps=695 q=-0.0 size=N/A time=00:08:57.62 bitrate=N/A speed=  29x    frame=13368 fps=700 q=-0.0 size=N/A time=00:09:17.55 bitrate=N/A speed=29.2x    frame=13685 fps=698 q=-0.0 size=N/A time=00:09:30.77 bitrate=N/A speed=29.1x    frame=13975 fps=695 q=-0.0 size=N/A time=00:09:42.87 bitrate=N/A speed=  29x    frame=14425 fps=699 q=-0.0 size=N/A time=00:10:01.64 bitrate=N/A speed=29.2x    frame=14775 fps=699 q=-0.0 size=N/A time=00:10:16.24 bitrate=N/A speed=29.1x    frame=15190 fps=701 q=-0.0 size=N/A time=00:10:33.54 bitrate=N/A speed=29.3x    frame=15712 fps=708 q=-0.0 size=N/A time=00:10:55.32 bitrate=N/A speed=29.5x    frame=16203 fps=714 q=-0.0 size=N/A time=00:11:15.80 bitrate=N/A speed=29.8x    frame=16713 fps=720 q=-0.0 size=N/A time=00:11:37.07 bitrate=N/A speed=  30x    frame=16989 fps=716 q=-0.0 size=N/A time=00:11:48.58 bitrate=N/A speed=29.9x    frame=17467 fps=720 q=-0.0 size=N/A time=00:12:08.51 bitrate=N/A speed=  30x    frame=17903 fps=723 q=-0.0 size=N/A time=00:12:26.70 bitrate=N/A speed=30.2x    frame=18291 fps=724 q=-0.0 size=N/A time=00:12:42.88 bitrate=N/A speed=30.2x    frame=18831 fps=730 q=-0.0 size=N/A time=00:13:05.40 bitrate=N/A speed=30.5x    frame=19409 fps=738 q=-0.0 size=N/A time=00:13:29.51 bitrate=N/A speed=30.8x    frame=19872 fps=741 q=-0.0 size=N/A time=00:13:48.82 bitrate=N/A speed=30.9x    frame=20310 fps=743 q=-0.0 size=N/A time=00:14:07.09 bitrate=N/A speed=  31x    frame=20782 fps=746 q=-0.0 size=N/A time=00:14:26.78 bitrate=N/A speed=31.1x    frame=21210 fps=748 q=-0.0 size=N/A time=00:14:44.63 bitrate=N/A speed=31.2x    frame=21669 fps=750 q=-0.0 size=N/A time=00:15:03.77 bitrate=N/A speed=31.3x    frame=22173 fps=754 q=-0.0 size=N/A time=00:15:24.79 bitrate=N/A speed=31.5x    frame=22630 fps=757 q=-0.0 size=N/A time=00:15:43.85 bitrate=N/A speed=31.6x    frame=23154 fps=761 q=-0.0 size=N/A time=00:16:05.71 bitrate=N/A speed=31.7x    frame=23660 fps=765 q=-0.0 size=N/A time=00:16:26.81 bitrate=N/A speed=31.9x    frame=24163 fps=768 q=-0.0 size=N/A time=00:16:47.79 bitrate=N/A speed=  32x    frame=24686 fps=772 q=-0.0 size=N/A time=00:17:09.61 bitrate=N/A speed=32.2x    frame=25216 fps=776 q=-0.0 size=N/A time=00:17:31.71 bitrate=N/A speed=32.4x    frame=25652 fps=777 q=-0.0 size=N/A time=00:17:49.90 bitrate=N/A speed=32.4x    frame=26177 fps=781 q=-0.0 size=N/A time=00:18:11.79 bitrate=N/A speed=32.6x    frame=26486 fps=778 q=-0.0 size=N/A time=00:18:24.68 bitrate=N/A speed=32.5x    frame=26987 fps=781 q=-0.0 size=N/A time=00:18:45.58 bitrate=N/A speed=32.6x    frame=27469 fps=783 q=-0.0 size=N/A time=00:19:05.68 bitrate=N/A speed=32.7x    frame=27966 fps=786 q=-0.0 size=N/A time=00:19:26.41 bitrate=N/A speed=32.8x    frame=28473 fps=789 q=-0.0 size=N/A time=00:19:47.56 bitrate=N/A speed=32.9x    frame=29001 fps=792 q=-0.0 size=N/A time=00:20:09.58 bitrate=N/A speed=  33x    frame=29543 fps=796 q=-0.0 size=N/A time=00:20:32.18 bitrate=N/A speed=33.2x    frame=30133 fps=800 q=-0.0 size=N/A time=00:20:56.79 bitrate=N/A speed=33.4x    frame=30648 fps=803 q=-0.0 size=N/A time=00:21:18.27 bitrate=N/A speed=33.5x    frame=31133 fps=805 q=-0.0 size=N/A time=00:21:38.50 bitrate=N/A speed=33.6x    frame=31588 fps=806 q=-0.0 size=N/A time=00:21:57.48 bitrate=N/A speed=33.6x    frame=32131 fps=809 q=-0.0 size=N/A time=00:22:20.13 bitrate=N/A speed=33.8x    frame=32554 fps=809 q=-0.0 size=N/A time=00:22:37.77 bitrate=N/A speed=33.8x    frame=32934 fps=808 q=-0.0 size=N/A time=00:22:53.62 bitrate=N/A speed=33.7x    frame=33318 fps=808 q=-0.0 size=N/A time=00:23:09.63 bitrate=N/A speed=33.7x    frame=33744 fps=808 q=-0.0 size=N/A time=00:23:27.40 bitrate=N/A speed=33.7x    frame=34127 fps=807 q=-0.0 size=N/A time=00:23:43.38 bitrate=N/A speed=33.7x    frame=34645 fps=809 q=-0.0 size=N/A time=00:24:04.98 bitrate=N/A speed=33.8x    frame=35173 fps=812 q=-0.0 size=N/A time=00:24:27.00 bitrate=N/A speed=33.9x    [Parsed_psnr_10 @ 0000013f10426f40] PSNR y:47.803248 u:51.292984 v:51.433972 average:48.699513 min:36.699092 max:55.365785
[out#0/null @ 0000013f0faeecc0] video:15144KiB audio:275632KiB subtitle:0KiB other streams:0KiB global headers:0KiB muxing overhead: unknown
frame=35244 fps=813 q=-0.0 Lsize=N/A time=00:24:29.96 bitrate=N/A speed=33.9x    
